PathFileType	4	(X/Y/Z)	trial_0_0-299.trc
DataRate	CameraRate	NumFrames	NumMarkers	Units	OrigDataRate	OrigDataStartFrame	OrigNumFrames
60	60	9	21	m	60	37	299
Frame#	Time	RHip			RKnee			RAnkle			RBigToe			RSmallToe			RHeel			LHip			LKnee			LAnkle			LBigToe			LSmallToe			LHeel			Neck			Head			Nose			RShoulder			RElbow			RWrist			LShoulder			LElbow			LWrist		
		X1	Y1	Z1	X2	Y2	Z2	X3	Y3	Z3	X4	Y4	Z4	X5	Y5	Z5	X6	Y6	Z6	X7	Y7	Z7	X8	Y8	Z8	X9	Y9	Z9	X10	Y10	Z10	X11	Y11	Z11	X12	Y12	Z12	X13	Y13	Z13	X14	Y14	Z14	X15	Y15	Z15	X16	Y16	Z16	X17	Y17	Z17	X18	Y18	Z18	X19	Y19	Z19	X20	Y20	Z20	X21	Y21	Z21
38	0.6333333333333333	1.3763621940548054	1.1735939998659592	0.44898451872002576	1.8145546959263674	1.093682462133576	0.43560615209385045	2.1506458880235346	0.9296251128526434	0.3543117091902812	2.4449534971633695	1.1537769115818424	0.3407037252464447	2.4096062504123292	1.0923858364851453	0.43281095173207174	2.1516586610913215	0.875499784944589	0.3417309486214334	1.3780391048345202	1.221933824713096	0.1740807453552772	1.7930267443834358	1.0868903402651058	0.17306438621373527	2.079249172774111	0.8567777705179711	0.17389833355616532	2.467454326274502	1.2024722017111233	0.1692251984991054	2.322366526645386	1.0467719210735364	0.10153638957656433	2.069251325515755	0.7166823185320628	0.1832429475107123	0.6569903162951751	1.1232632348016083	0.3632669969962673	0.32301018366800516	1.3460673725918535	0.41901575917014733	0.5456893343726331	1.5634575189306181	0.4074478971243941	0.7492962473976981	1.1298802576251927	0.5433312955652645	1.089117883275905	1.1677798968023527	0.5849095954937631	1.392966212624306	1.4512625686092848	0.4221316163784045	0.7201285761088569	1.1351167241394642	0.16645106709512963	1.0719972957472008	1.206416872369982	0.08163987372065154	1.4452037883302808	1.6334477093325628	0.26539835508005916
39	0.65	1.3784087801375893	1.1761867930520862	0.4484436965160942	1.8168642658403114	1.0946669204219541	0.43571044565226036	2.1510163289582525	0.9301221858497852	0.3542201712944312	2.447960546401651	1.1572412895536914	0.3409062937647089	2.4109079620493032	1.093293810999651	0.43267487629237944	2.1523121517044244	0.8770069711811666	0.3414162311432806	1.3786478131883912	1.2223830165628875	0.17409234285924752	1.7942763483891402	1.0877724742245323	0.17326136062597283	2.078775638766017	0.8566452460303055	0.17327148617633073	2.4671425311083	1.200600412322715	0.16959395669239674	2.3275660783897054	1.052355803529199	0.10240515008261176	2.0679282513234685	0.7157770946375539	0.18363510366469227	0.6569804126766349	1.1231016308368011	0.3633087585251248	0.32311798959084564	1.34378083606724	0.41916600672722854	0.5463837172231161	1.56199314753092	0.4074097472239462	0.749492640085812	1.1295687562430847	0.5433239363296999	1.088647073738171	1.1680167926426652	0.5847804105054468	1.3931572817785918	1.4487132007860524	0.4222248048994932	0.720169171651538	1.135204890508573	0.16650693295358948	1.0715828816941184	1.20469101793532	0.08267509233213288	1.4461155892456137	1.633750077481479	0.26542919961672146
40	0.6666666666666666	1.379901473489297	1.178342929929888	0.4479835766358279	1.8191212024233017	1.0954967736937529	0.4357187587882857	2.1509036107342125	0.9302065470250188	0.3542150774386966	2.450552333210342	1.1607426976839956	0.3412445638491275	2.4112712559282423	1.0932606908745686	0.4327086681014868	2.1514532783025198	0.8761979348469602	0.3406070619804082	1.3790064587830553	1.222483863578835	0.17406858711345044	1.7946698898950921	1.0884869118855953	0.1734248979740588	2.0756781421418022	0.8520804215648841	0.17256464956585632	2.4661675930227362	1.19869736586749	0.17002169387237917	2.3325569027014703	1.05831576328315	0.10331932066201821	2.0660173039024707	0.713204419573132	0.18441228471464727	0.6569761703539154	1.1229618098302487	0.36335146482235336	0.3231367498811967	1.3425443106342423	0.4192931414054482	0.5469905666428235	1.5610699051893437	0.4073045986056054	0.7495789644502677	1.1294127472718123	0.5433198842044811	1.088381508002192	1.1681357635146261	0.5847024576840643	1.3933868661646849	1.447371795601816	0.4222293793331584	0.7202465218971538	1.1358972400130858	0.16662548734163934	1.0715114432920274	1.203365043092703	0.08347763030678024	1.446147871027056	1.6335435174619184	0.26540373179285337
41	0.6833333333333333	1.3807793150702372	1.1798135136486112	0.44766052366025577	1.8208702455485297	1.096090044267001	0.4355954606467788	2.150444716155854	0.9299516098936635	0.3542781839508824	2.451710724636923	1.1625384627352473	0.3414961373669916	2.410871656444535	1.092489527454347	0.43286492840835206	2.149913475550293	0.874135394140711	0.33979717932787423	1.379022312712337	1.2221984647574686	0.17402984336339217	1.7943771825300692	1.0885792165956942	0.17356338819705952	2.07180884894506	0.8455375844536144	0.17208215643088937	2.4647467310838485	1.19698417312484	0.17042772128246597	2.33674012733628	1.063852102339195	0.10411381891328776	2.064249517611289	0.7101427160138862	0.18524013555773003	0.656961392059707	1.1228450617349586	0.3633980298186862	0.32304394565498845	1.3418180157923785	0.4194318669121414	0.5473855095759944	1.5606435413348945	0.4072082021137255	0.7496114292167069	1.1293690787429598	0.5433218237006805	1.0882698169725675	1.1681343845267647	0.5846627600127299	1.3936742875098838	1.4469049163317549	0.42218159031308333	0.7203936529959946	1.1374023569589928	0.16687582093389713	1.071448308658323	1.202746606190293	0.08384569797093686	1.445319185716123	1.633128291856127	0.26529584509692355
42	0.7	1.3811810890439085	1.180515104144059	0.44749070668753965	1.8218548439793032	1.0961386157841706	0.43541639917363034	2.149896419503022	0.9295120345624297	0.3543725102448333	2.450614675866318	1.1613311004909228	0.3413540247421363	2.4099918325134495	1.0914878218797703	0.4330613102495201	2.1486713588019093	0.8723093944130611	0.33945048998814836	1.3787519309887313	1.221547955790804	0.17401073660172797	1.7938115531352645	1.0879436585782427	0.17363490721212688	2.0686258253847303	0.8392449283908499	0.17200415421900236	2.4633352971635163	1.1959018122707308	0.17068076191009401	2.3393568213367946	1.0678414784465657	0.10465297850996907	2.0630240248267593	0.7075670663454193	0.1858679264972123	0.6568984667646088	1.1227044641030617	0.3634645307624875	0.3228079475352578	1.3412009194200625	0.41959958104592465	0.5475672599463725	1.560475020526889	0.40716486880814423	0.7496258411791263	1.129394785542088	0.5433219705061705	1.0882323758966321	1.1680319875801999	0.5846403768667323	1.3940554909992011	1.4470678153871566	0.4221174893158134	0.7206160909184256	1.139598233317618	0.16725695147344044	1.0710351716239104	1.2026049787566606	0.08387245245783811	1.4440300420855592	1.632896859168818	0.2651267510690367
43	0.7166666666666667	1.3812899266689223	1.1805835203532862	0.44744882902174765	1.8218895251706995	1.0952535838028004	0.43534682650363277	2.1494528563541366	0.9290435935402133	0.35445993275189824	2.447227698443151	1.1571590986951674	0.34058011894403983	2.408903599433976	1.0907929912624674	0.4332141420907818	2.1482001129482944	0.8715111215629485	0.3396866188419512	1.37816479562894	1.220617368415248	0.17404357423288083	1.7932124675251582	1.086824340864866	0.1736025204463482	2.0664242265010446	0.8341628000565358	0.17231046784594728	2.4623995379938015	1.1958657223033697	0.17067172270385791	2.339696611485355	1.069053881153204	0.10487092754103769	2.06232026863987	0.7057940552816002	0.18623899259400548	0.6567194548981653	1.1223709597627525	0.3635957493689337	0.322430525909825	1.3405500573572342	0.41979658819840987	0.5476124904366436	1.5602989915102121	0.4071807537713343	0.7496362264394851	1.129479643032429	0.5433117805032519	1.088216806068833	1.167888122982476	0.5846231028879734	1.3944776687295624	1.4477533728032492	0.42207234721992715	0.7208491317567711	1.1417166029995711	0.16765361424427394	1.070120206691274	1.2023359372761493	0.08385110230792499	1.4427827414384446	1.6329944062260204	0.2649546435163446
44	0.7333333333333333	1.3812372720907733	1.1802748166352113	0.44749912888431537	1.8209936977857075	1.093471865520574	0.4354879453150776	2.149203325546833	0.9287029724862366	0.3545034678716118	2.442345846983448	1.151168013174791	0.3392123447030778	2.407845145855787	1.0906365871003758	0.4332785856815684	2.1483823289760755	0.8716139928821245	0.3402616932492637	1.377178657489023	1.2196159149998673	0.17413545052383508	1.7925909007598775	1.0855863522612452	0.17348635495963044	2.0648450838756336	0.830341103510355	0.1728501937098666	2.4621162461681116	1.1968834163178914	0.1704004681974608	2.337623842302324	1.0669197701581186	0.10479443333743711	2.0618673837565487	0.7047005218427187	0.18642204994536565	0.6563365830000564	1.1215557565274592	0.3638615796089664	0.3220024348338144	1.339901430078346	0.42000529200417647	0.5476029600202588	1.5600006286192851	0.40723390017995786	0.7496443854363255	1.1296218689325812	0.5432868945650366	1.0882015011975394	1.1677848664115893	0.5846119587626448	1.3947379297961167	1.448731236623039	0.42209834797757867	0.7209928173107458	1.1427228239153426	0.1679094568565354	1.0689428477367882	1.2014463295078697	0.08401098969309954	1.4418837040609171	1.633183402323067	0.2648427252704515
45	0.75	1.3810882478110487	1.1797839622196624	0.44762061110968054	1.8196341184841063	1.0915889158867647	0.4357504155373194	2.149212452485843	0.9287032766958305	0.354455423005297	2.4373833509229073	1.1450720413134248	0.3377048529131758	2.4070486570015706	1.0908211894476356	0.4332660813169853	2.1488221483581937	0.8720476179572041	0.34080804307984003	1.3759377742877938	1.2188966699040846	0.17425445044744925	1.7920117344418633	1.0844812875792267	0.17335181101285885	2.0636869476083115	0.8276470464692576	0.173426707677799	2.462296320485786	1.198498260240487	0.1699831119429845	2.3337504111798744	1.0620526734333517	0.10449528513812599	2.0613895489028	0.7041332369837485	0.18648889702218524	0.6557149680656547	1.1200754415337975	0.36430043557883485	0.32165503635564474	1.339291340851012	0.42019601219030167	0.5475851067346432	1.5596288488732248	0.40729138532975806	0.7496488463807507	1.1298020113380187	0.543250007715554	1.0881826789712226	1.1677736111103307	0.5846140560840893	1.3946099381224681	1.4495717806232271	0.42224424038739383	0.7210336252894254	1.1424664328821346	0.16800209934979124	1.0680538848951981	1.1998402101408925	0.08436029888770664	1.4413669905949473	1.6330304026843743	0.2648338565811592
46	0.7666666666666667	1.380872952213744	1.1791486580713069	0.4478052385516514	1.8185931532053377	1.0908418517437015	0.4358993703589565	2.1495873283009495	0.92934917518036	0.35424781760353835	2.43393506373889	1.1407330800083892	0.3367380117017452	2.4067367530374515	1.091017596926409	0.43320912863498606	2.1491327764661525	0.8722586660154477	0.34110773171490416	1.3749100782895676	1.2188004674570296	0.17433573843737363	1.7917219939437283	1.083605678181442	0.17325320542475198	2.0630468388917285	0.825983868932815	0.17385749030013625	2.4625910196529985	1.2001284881432945	0.16956997090684184	2.329030506761064	1.0559382341078285	0.10402503726085585	2.0608026321039916	0.7040516668916691	0.1864533769174441	0.654990160947397	1.1182279861850948	0.3648253326779213	0.32140529755624747	1.3385893759107796	0.4203473260137822	0.54756310007017	1.55925425610127	0.4073194934757035	0.7496479266532023	1.1299804099701887	0.543209333486709	1.0881642411509165	1.1678483352331348	0.5846315555243521	1.3940843054968268	1.4500051752447973	0.42249624473490255	0.7211110266917984	1.1423152538236285	0.16812534591481137	1.0679082739890773	1.1977045086270408	0.08476457541584038	1.4411412460059445	1.6322701498790415	0.2649441623826895
